{"glyphs":{":":{"x_min":0,"x_max":329,"ha":329,"o":"m 164 300 q 125 300 100 325 q 75 350 75 388 q 75 426 101 452 q 126 477 164 477 q 201 477 227 451 q 253 425 253 388 q 253 351 227 325 q 201 300 164 300 z m 164 -12 q 125 -12 100 13 q 75 39 75 77 q 75 115 100 140 q 125 165 164 165 q 201 165 227 139 q 253 114 253 77 q 253 40 227 14 q 201 -12 164 -12 z"},"$":{"x_min":0,"x_max":535,"ha":535,"o":"m 236 419 l 236 584 q 204 577 186 555 q 168 534 168 504 q 168 474 186 451 q 204 429 236 419 z m 53 220 l 129 220 q 140 173 167 140 q 194 107 236 92 l 236 300 q 148 324 104 371 q 59 418 59 487 q 59 566 107 616 q 155 666 236 670 l 236 727 l 298 727 l 298 668 q 329 665 354 649 q 379 633 394 607 l 391 665 l 464 665 l 464 474 l 394 474 q 382 518 356 546 q 331 575 298 582 l 298 401 q 405 372 457 322 q 508 272 508 196 q 508 111 448 52 q 389 -6 298 -9 l 298 -91 l 236 -91 l 236 -5 q 199 1 170 21 q 141 42 124 74 l 128 1 l 53 1 z m 298 87 q 343 93 370 119 q 396 146 396 184 q 396 219 373 243 q 351 266 298 284 z"},"?":{"x_min":0,"x_max":595,"ha":595,"o":"m 84 524 q 93 626 148 680 q 204 734 300 734 q 396 734 454 680 q 512 626 512 537 q 512 461 469 410 q 426 359 348 343 l 348 217 l 232 217 l 232 431 q 239 431 246 431 q 253 430 254 430 q 322 430 358 459 q 395 488 395 542 q 395 583 368 607 q 342 632 297 632 q 252 632 225 603 q 198 574 196 524 z m 286 -12 q 248 -12 222 13 q 197 39 197 77 q 197 115 222 140 q 248 165 286 165 q 323 165 349 139 q 375 114 375 77 q 375 40 349 14 q 323 -12 286 -12 z"},"<":{"x_min":0,"x_max":833,"ha":833,"o":"m 704 574 l 704 484 l 248 298 l 704 112 l 704 23 l 129 259 l 129 337 z"},"'":{"x_min":0,"x_max":163,"ha":163,"o":"m 42 701 l 122 701 l 122 429 l 42 429 z"},"=":{"x_min":0,"x_max":833,"ha":833,"o":"m 124 238 l 709 238 l 709 157 l 124 157 z m 124 440 l 709 440 l 709 358 l 124 358 z"},"a":{"x_min":0,"x_max":620,"ha":620,"o":"m 524 97 l 589 97 l 589 0 l 408 0 l 408 50 q 379 20 342 4 q 304 -11 262 -11 q 159 -11 92 58 q 26 126 26 233 q 26 336 93 407 q 161 477 262 477 q 304 477 340 462 q 376 446 408 415 l 408 465 l 589 465 l 589 368 l 524 368 z m 144 232 q 144 170 181 132 q 219 93 278 93 q 335 93 374 132 q 412 171 412 232 q 412 292 374 332 q 335 372 278 372 q 219 372 181 333 q 144 294 144 232 z"},"L":{"x_min":0,"x_max":546,"ha":546,"o":"m 25 0 l 25 100 l 102 100 l 102 620 l 25 620 l 25 720 l 319 720 l 319 619 l 231 619 l 231 100 l 411 100 l 411 213 l 528 213 l 528 0 z"},"3":{"x_min":0,"x_max":535,"ha":535,"o":"m 159 247 q 161 168 187 132 q 214 95 269 95 q 314 95 344 127 q 374 158 374 205 q 374 258 340 288 q 306 318 246 318 l 235 318 l 235 405 q 238 405 243 404 q 249 404 251 404 q 306 404 334 432 q 363 460 363 514 q 363 558 338 583 q 313 609 271 609 q 214 609 190 572 q 166 535 166 445 l 166 438 l 48 438 q 48 442 47 454 q 47 465 47 473 q 47 588 105 652 q 163 716 267 716 q 367 716 425 662 q 483 608 483 516 q 483 458 457 419 q 432 379 384 365 q 435 353 465 311 q 494 268 494 206 q 494 104 434 46 q 374 -13 269 -13 q 156 -13 97 46 q 39 106 39 221 q 39 226 40 234 q 40 243 40 247 z"},";":{"x_min":0,"x_max":329,"ha":329,"o":"m 101 117 l 227 117 l 154 -106 l 34 -106 z m 169 300 q 130 300 104 325 q 79 350 79 388 q 79 426 105 452 q 130 477 169 477 q 206 477 232 451 q 258 425 258 388 q 258 351 232 325 q 207 300 169 300 z"},"J":{"x_min":0,"x_max":333,"ha":333,"o":"m 236 67 q 236 -30 192 -73 q 148 -117 51 -117 q 38 -117 31 -117 q 23 -117 17 -116 l 17 10 q 25 9 33 9 q 41 9 47 9 q 77 9 92 25 q 106 41 106 74 l 106 620 l 19 620 l 19 720 l 312 720 l 312 620 l 236 620 z"},"V":{"x_min":0,"x_max":660,"ha":660,"o":"m 286 -14 l 62 620 l 11 620 l 11 720 l 263 720 l 263 620 l 198 620 l 332 224 l 465 620 l 397 620 l 397 720 l 641 720 l 641 620 l 592 620 l 373 -14 z"},"\"":{"x_min":0,"x_max":314,"ha":314,"o":"m 193 701 l 273 701 l 273 429 l 193 429 z m 42 701 l 122 701 l 122 429 l 42 429 z"},"7":{"x_min":0,"x_max":535,"ha":535,"o":"m 111 0 l 374 596 l 168 596 l 168 472 l 53 472 l 53 701 l 498 701 l 498 599 l 240 0 z"},"S":{"x_min":0,"x_max":626,"ha":626,"o":"m 173 61 l 173 0 l 69 0 l 69 244 l 173 244 q 193 167 237 126 q 280 86 344 86 q 394 86 427 117 q 461 148 461 194 q 461 235 432 261 q 403 287 334 306 l 252 329 q 153 356 109 404 q 64 452 64 528 q 64 616 126 675 q 188 734 281 734 q 331 734 373 718 q 416 703 446 673 l 446 720 l 546 720 l 546 506 l 446 506 q 429 570 393 601 q 356 633 301 633 q 254 633 224 607 q 195 582 195 542 q 195 508 214 489 q 232 469 280 455 l 367 430 q 488 395 537 344 q 586 294 586 209 q 586 108 525 47 q 463 -14 362 -14 q 304 -14 256 5 q 208 24 173 61 z"},"}":{"x_min":0,"x_max":500,"ha":500,"o":"m 74 721 l 96 721 q 152 721 184 716 q 215 710 237 697 q 265 681 276 650 q 287 620 287 550 l 287 429 q 287 359 312 330 q 338 302 400 302 q 403 302 410 302 q 417 303 421 303 l 421 216 q 417 216 410 216 q 403 217 400 217 q 338 217 313 188 q 287 159 287 89 l 287 -32 q 287 -102 276 -132 q 265 -162 237 -178 q 216 -191 184 -197 q 152 -202 96 -202 l 74 -202 l 74 -116 q 78 -116 85 -117 q 93 -117 96 -117 q 149 -117 168 -97 q 187 -76 187 -11 l 187 106 q 187 181 209 213 q 231 245 287 259 q 231 272 209 304 q 187 336 187 412 l 187 530 q 187 594 168 615 q 150 635 97 635 q 94 635 86 634 q 78 634 74 634 z"},"Z":{"x_min":0,"x_max":649,"ha":649,"o":"m 467 98 l 467 218 l 585 218 l 585 0 l 59 0 l 59 92 l 428 619 l 191 619 l 191 521 l 73 521 l 73 718 l 585 718 l 585 630 l 214 98 z"},"x":{"x_min":0,"x_max":556,"ha":556,"o":"m 216 92 l 216 0 l 23 0 l 23 97 l 91 97 l 215 230 l 78 368 l 23 368 l 23 465 l 208 465 l 208 385 l 280 299 l 346 385 l 346 465 l 530 465 l 530 368 l 463 368 l 345 236 l 485 97 l 530 97 l 530 0 l 347 0 l 347 92 l 278 167 z"},")":{"x_min":0,"x_max":317,"ha":317,"o":"m 10 673 l 94 734 q 178 629 221 514 q 264 398 264 279 q 264 160 221 44 q 177 -72 94 -175 l 8 -113 q 77 -30 114 72 q 151 174 151 279 q 151 383 115 485 q 78 586 10 673 z"},"&":{"x_min":0,"x_max":741,"ha":741,"o":"m 687 100 l 687 0 l 535 0 l 467 78 q 417 31 364 8 q 311 -14 250 -14 q 167 -14 114 41 q 60 96 60 179 q 60 234 89 281 q 118 327 192 387 q 146 439 124 481 q 103 523 103 563 q 103 632 154 682 q 206 732 278 732 q 347 732 394 686 q 441 639 441 569 q 441 520 417 476 q 393 433 339 387 l 477 234 q 502 271 516 308 q 529 344 533 386 l 478 386 l 478 474 l 687 474 l 687 386 l 624 386 q 622 326 602 271 q 582 217 542 161 l 600 100 z m 401 151 l 256 310 q 213 275 193 244 q 173 213 173 182 q 173 142 198 118 q 224 94 267 94 q 303 94 337 109 q 372 124 401 151 z m 273 450 q 311 483 328 512 q 345 541 345 570 q 345 604 325 626 q 305 648 275 648 q 244 648 224 627 q 204 606 204 573 q 204 547 221 517 q 237 487 273 450 z"},"_":{"x_min":0,"x_max":500,"ha":500,"o":"m 0 -152 l 500 -152 l 500 -236 l 0 -236 z"},"v":{"x_min":0,"x_max":539,"ha":539,"o":"m 222 0 l 59 368 l 5 368 l 5 465 l 229 465 l 229 368 l 184 368 l 272 146 l 366 368 l 319 368 l 319 465 l 534 465 l 534 368 l 479 368 l 316 0 z"},"O":{"x_min":0,"x_max":815,"ha":815,"o":"m 30 360 q 30 519 137 626 q 245 734 407 734 q 482 734 545 711 q 608 688 659 643 q 721 588 753 516 q 785 444 785 360 q 785 287 760 221 q 734 156 686 104 q 632 45 562 16 q 491 -14 407 -14 q 246 -14 138 94 q 30 202 30 360 z m 167 360 q 167 251 236 179 q 304 108 407 108 q 510 108 579 179 q 648 250 648 360 q 648 469 579 541 q 510 612 407 612 q 305 612 236 540 q 167 469 167 360 z"},"(":{"x_min":0,"x_max":317,"ha":317,"o":"m 307 673 q 239 586 203 485 q 166 383 166 279 q 166 174 203 72 q 240 -30 309 -113 l 223 -175 q 140 -72 96 44 q 53 160 53 279 q 53 398 96 514 q 139 629 223 734 z"},"C":{"x_min":0,"x_max":759,"ha":759,"o":"m 592 480 q 570 544 522 579 q 475 614 407 614 q 299 614 232 544 q 166 474 166 360 q 166 246 232 177 q 299 107 407 107 q 475 107 521 137 q 567 167 600 234 l 725 234 q 696 120 610 53 q 524 -14 407 -14 q 245 -14 138 92 q 32 199 32 360 q 32 524 136 629 q 239 734 399 734 q 463 734 513 715 q 563 696 594 660 l 592 720 l 699 720 l 699 480 z"},"W":{"x_min":0,"x_max":946,"ha":946,"o":"m 472 435 l 337 -14 l 252 -14 l 46 620 l -4 620 l -4 720 l 245 720 l 245 620 l 177 620 l 297 231 l 411 620 l 346 620 l 346 720 l 600 720 l 600 620 l 534 620 l 656 228 l 780 620 l 700 620 l 700 720 l 950 720 l 950 620 l 899 620 l 693 -14 l 609 -14 z"},"A":{"x_min":0,"x_max":685,"ha":685,"o":"m 253 331 l 416 331 l 335 575 z m 178 100 l 255 100 l 255 0 l -3 0 l -3 100 l 54 100 l 236 620 l 158 620 l 158 720 l 527 720 l 527 620 l 444 620 l 622 100 l 688 100 l 688 0 l 415 0 l 415 100 l 492 100 l 448 231 l 222 231 z"},"f":{"x_min":0,"x_max":326,"ha":326,"o":"m 295 0 l 22 0 l 22 97 l 99 97 l 99 368 l 22 368 l 22 465 l 99 465 l 99 528 q 99 650 133 685 q 167 720 269 720 q 280 720 287 720 q 293 720 301 719 l 301 627 l 275 627 q 239 627 227 615 q 214 602 214 554 l 214 522 l 214 465 l 301 465 l 301 368 l 214 368 l 214 97 l 295 97 z"},"Q":{"x_min":0,"x_max":815,"ha":815,"o":"m 529 137 q 585 167 617 225 q 648 284 648 360 q 648 471 580 541 q 511 612 407 612 q 303 612 235 541 q 167 470 167 360 q 167 250 235 179 q 303 108 407 108 l 423 108 l 389 178 l 482 229 z m 585 28 l 605 -9 l 704 -9 l 704 -125 l 539 -125 l 482 -8 q 459 -11 441 -13 q 422 -14 407 -14 q 333 -14 270 9 q 207 32 156 77 q 95 130 62 204 q 30 277 30 360 q 30 519 137 626 q 245 734 407 734 q 481 734 544 711 q 607 688 659 643 q 721 589 753 516 q 785 444 785 360 q 785 251 731 162 q 677 72 585 28 z"},"w":{"x_min":0,"x_max":794,"ha":794,"o":"m 288 0 l 211 0 l 59 368 l 4 368 l 4 465 l 221 465 l 221 368 l 170 368 l 255 150 l 347 368 l 292 368 l 292 465 l 510 465 l 510 368 l 454 368 l 543 150 l 633 368 l 572 368 l 572 465 l 791 465 l 791 368 l 739 368 l 583 0 l 503 0 l 397 255 z"},"-":{"x_min":0,"x_max":308,"ha":308,"o":"m 30 181 l 30 284 l 278 284 l 278 181 z"},"E":{"x_min":0,"x_max":625,"ha":625,"o":"m 25 0 l 25 100 l 102 100 l 102 620 l 25 620 l 25 720 l 573 720 l 573 524 l 461 524 l 461 619 l 231 619 l 231 439 l 424 439 l 424 331 l 231 331 l 231 100 l 457 100 l 457 213 l 573 213 l 573 0 z"},"s":{"x_min":0,"x_max":514,"ha":514,"o":"m 141 0 l 54 0 l 54 162 l 145 162 q 163 119 199 97 q 235 74 287 74 q 318 74 338 89 q 357 104 357 129 q 357 149 342 160 q 328 171 276 181 l 199 194 q 123 208 86 242 q 49 276 49 334 q 49 399 95 438 q 141 477 218 477 q 260 477 293 466 q 326 455 348 433 l 349 465 l 436 465 l 436 318 l 342 318 q 330 355 301 375 q 273 394 232 394 q 199 394 179 380 q 159 367 159 345 q 159 305 249 288 q 253 288 256 287 l 309 278 q 392 263 432 228 q 471 192 471 134 q 471 70 422 29 q 373 -12 294 -12 q 254 -12 217 -1 q 179 11 142 34 z"},">":{"x_min":0,"x_max":833,"ha":833,"o":"m 129 574 l 704 337 l 704 259 l 129 23 l 129 112 l 585 298 l 129 484 z"},"l":{"x_min":0,"x_max":289,"ha":289,"o":"m 91 623 l 21 623 l 21 720 l 206 720 l 206 97 l 274 97 l 274 0 l 20 0 l 20 97 l 91 97 z"},"8":{"x_min":0,"x_max":535,"ha":535,"o":"m 267 412 q 308 412 337 441 q 366 470 366 512 q 366 554 337 583 q 308 613 267 613 q 226 613 198 584 q 170 555 170 512 q 170 470 198 441 q 226 412 267 412 z m 268 91 q 312 91 343 122 q 374 153 374 199 q 374 246 344 277 q 313 308 268 308 q 223 308 192 277 q 161 246 161 199 q 161 153 192 122 q 223 91 268 91 z m 150 363 q 103 387 77 428 q 52 468 52 520 q 52 606 112 661 q 173 716 267 716 q 361 716 422 661 q 483 605 483 520 q 483 469 457 428 q 432 387 384 363 q 437 333 465 288 q 492 243 492 186 q 492 100 429 43 q 365 -14 267 -14 q 169 -14 106 43 q 43 100 43 186 q 43 244 70 289 q 97 333 150 363 z"},"\\":{"x_min":0,"x_max":333,"ha":333,"o":"m 256 -93 l 10 734 l 78 734 l 323 -93 z"},"e":{"x_min":0,"x_max":557,"ha":557,"o":"m 145 280 l 415 280 q 401 328 367 353 q 333 378 282 378 q 229 378 193 352 q 157 326 145 280 z m 517 137 q 497 66 436 27 q 375 -12 283 -12 q 167 -12 97 55 q 26 123 26 232 q 26 339 98 407 q 170 476 282 476 q 394 476 462 404 q 530 331 530 210 l 530 198 l 145 198 q 151 145 188 116 q 224 87 286 87 q 325 87 355 100 q 386 113 403 137 z"},"b":{"x_min":0,"x_max":616,"ha":616,"o":"m 204 232 q 204 172 242 132 q 281 93 338 93 q 396 93 434 132 q 472 171 472 232 q 472 292 434 332 q 395 372 338 372 q 281 372 242 332 q 204 292 204 232 z m 27 0 l 27 97 l 92 97 l 92 623 l 27 623 l 27 720 l 207 720 l 207 415 q 239 446 275 462 q 312 477 354 477 q 455 477 522 407 q 590 336 590 233 q 590 126 524 58 q 458 -11 354 -11 q 312 -11 274 5 q 236 21 207 50 l 207 0 z"},"%":{"x_min":0,"x_max":887,"ha":887,"o":"m 676 96 q 710 96 733 119 q 756 143 756 177 q 756 211 733 235 q 709 258 676 258 q 643 258 619 234 q 596 211 596 177 q 596 143 619 120 q 643 96 676 96 z m 853 177 q 853 103 801 52 q 749 0 676 0 q 603 0 551 52 q 499 104 499 177 q 499 251 551 302 q 602 353 676 353 q 750 353 802 302 q 853 251 853 177 z m 616 715 l 686 715 l 270 -14 l 200 -14 z m 211 444 q 245 444 268 467 q 291 491 291 525 q 291 560 268 583 q 245 606 211 606 q 177 606 154 583 q 130 559 130 525 q 130 491 154 468 q 177 444 211 444 z m 387 525 q 387 451 335 400 q 283 348 210 348 q 137 348 86 400 q 34 451 34 525 q 34 599 85 650 q 136 701 210 701 q 284 701 336 650 q 387 599 387 525 z"},"m":{"x_min":0,"x_max":875,"ha":875,"o":"m 209 402 q 241 438 280 458 q 319 477 357 477 q 405 477 438 456 q 471 435 488 394 q 521 437 560 457 q 598 477 647 477 q 723 477 759 438 q 795 398 795 315 l 795 97 l 860 97 l 860 0 l 615 0 l 615 97 l 682 97 l 682 262 q 682 323 664 344 q 646 366 603 366 q 574 366 548 354 q 523 341 500 315 l 500 97 l 566 97 l 566 0 l 322 0 l 322 97 l 388 97 l 388 262 q 388 324 370 345 q 353 366 308 366 q 278 366 252 349 q 227 332 206 298 l 206 97 l 273 97 l 273 0 l 28 0 l 28 97 l 93 97 l 93 368 l 28 368 l 28 465 l 209 465 z"},"#":{"x_min":0,"x_max":769,"ha":769,"o":"m 346 416 l 302 292 l 427 292 l 471 416 z m 359 713 l 452 713 l 377 500 l 499 500 l 575 713 l 668 713 l 593 500 l 735 500 l 706 416 l 563 416 l 519 293 l 670 293 l 640 209 l 490 209 l 414 -3 l 321 -3 l 397 209 l 274 209 l 197 -3 l 104 -3 l 180 209 l 34 209 l 64 293 l 209 293 l 253 416 l 99 416 l 129 500 l 283 500 z"},",":{"x_min":0,"x_max":267,"ha":267,"o":"m 83 117 l 210 117 l 137 -106 l 17 -106 z"},"n":{"x_min":0,"x_max":598,"ha":598,"o":"m 209 402 q 250 441 290 459 q 329 477 373 477 q 447 477 482 437 q 518 397 518 315 l 518 97 l 583 97 l 583 0 l 337 0 l 337 97 l 402 97 l 402 289 q 402 326 383 346 q 364 366 329 366 q 297 366 268 349 q 238 333 209 298 l 209 97 l 274 97 l 274 0 l 28 0 l 28 97 l 93 97 l 93 368 l 28 368 l 28 465 l 209 465 z"},"h":{"x_min":0,"x_max":594,"ha":594,"o":"m 88 623 l 23 623 l 23 720 l 204 720 l 204 402 q 245 441 285 459 q 325 477 369 477 q 442 477 478 438 q 513 398 513 315 l 513 97 l 578 97 l 578 0 l 332 0 l 332 97 l 397 97 l 397 289 q 397 327 378 347 q 359 368 324 368 q 293 368 264 351 q 234 333 204 298 l 204 97 l 269 97 l 269 0 l 23 0 l 23 97 l 88 97 z"},"z":{"x_min":0,"x_max":492,"ha":492,"o":"m 456 0 l 36 0 l 36 97 l 302 368 l 150 368 l 150 306 l 50 306 l 50 465 l 445 465 l 445 368 l 180 97 l 357 97 l 357 166 l 456 166 z"},"B":{"x_min":0,"x_max":613,"ha":613,"o":"m 231 338 l 231 100 l 285 100 q 362 100 396 128 q 429 156 429 219 q 429 281 395 310 q 361 338 285 338 z m 231 620 l 231 431 l 285 431 q 337 431 366 456 q 396 481 396 525 q 396 571 367 595 q 339 620 285 620 z m 25 0 l 25 100 l 102 100 l 102 620 l 25 620 l 25 720 l 285 720 q 402 720 464 673 q 526 626 526 537 q 526 479 496 443 q 465 407 404 390 q 479 372 519 326 q 558 280 558 210 q 558 104 490 52 q 422 0 285 0 z"},"K":{"x_min":0,"x_max":648,"ha":648,"o":"m 231 100 l 308 100 l 308 0 l 25 0 l 25 100 l 102 100 l 102 620 l 25 620 l 25 720 l 308 720 l 308 620 l 231 620 l 231 385 l 429 620 l 354 620 l 354 720 l 626 720 l 626 620 l 575 620 l 368 381 l 574 100 l 641 100 l 641 0 l 354 0 l 354 100 l 426 100 l 231 366 z"},"R":{"x_min":0,"x_max":648,"ha":648,"o":"m 231 620 l 231 430 l 325 430 q 393 430 423 453 q 453 476 453 525 q 453 575 423 597 q 393 620 325 620 z m 231 100 l 318 100 l 318 0 l 25 0 l 25 100 l 102 100 l 102 620 l 25 620 l 25 720 l 322 720 q 458 720 520 676 q 582 631 582 535 q 582 476 552 436 q 521 397 459 376 q 513 369 537 339 q 561 310 561 251 l 561 100 l 630 100 l 630 0 l 431 0 l 431 181 q 431 274 403 302 q 374 330 298 330 l 231 330 z"},"T":{"x_min":0,"x_max":597,"ha":597,"o":"m 363 100 l 456 100 l 456 0 l 141 0 l 141 100 l 234 100 l 234 620 l 140 620 l 140 516 l 25 516 l 25 720 l 572 720 l 572 516 l 457 516 l 457 620 l 363 620 z"},"P":{"x_min":0,"x_max":586,"ha":586,"o":"m 231 621 l 231 360 l 271 360 q 360 360 403 392 q 446 424 446 491 q 446 557 403 589 q 360 621 271 621 z m 231 100 l 324 100 l 324 0 l 25 0 l 25 100 l 102 100 l 102 620 l 25 620 l 25 720 l 271 720 q 422 720 499 662 q 576 604 576 490 q 576 377 499 319 q 421 261 271 261 l 231 261 z"},"|":{"x_min":0,"x_max":500,"ha":500,"o":"m 207 764 l 294 764 l 294 -236 l 207 -236 z"},"t":{"x_min":0,"x_max":338,"ha":338,"o":"m 208 178 q 208 117 218 103 q 228 90 277 90 q 280 90 288 91 q 292 92 293 92 l 293 0 q 275 -2 256 -3 q 236 -4 215 -4 q 141 -4 117 18 q 93 40 93 120 l 93 368 l 12 368 l 12 465 l 93 465 l 93 629 l 208 629 l 208 465 l 293 465 l 293 368 l 208 368 z"},"M":{"x_min":0,"x_max":885,"ha":885,"o":"m 229 100 l 315 100 l 315 0 l 25 0 l 25 100 l 102 100 l 102 620 l 25 620 l 25 720 l 305 720 l 447 307 l 590 720 l 860 720 l 860 620 l 783 620 l 783 100 l 860 100 l 860 0 l 570 0 l 570 100 l 656 100 l 656 587 l 478 96 l 409 96 l 229 587 z"},"g":{"x_min":0,"x_max":616,"ha":616,"o":"m 144 232 q 144 172 182 132 q 221 93 278 93 q 336 93 374 132 q 412 171 412 232 q 412 292 374 332 q 335 372 278 372 q 221 372 183 332 q 144 292 144 232 z m 524 81 l 524 43 q 524 -24 518 -57 q 511 -90 496 -113 q 466 -159 413 -184 q 360 -208 289 -208 q 225 -208 172 -195 q 119 -183 75 -157 l 75 -45 q 127 -77 172 -92 q 217 -108 255 -108 q 333 -108 371 -80 q 408 -53 408 6 l 408 50 q 379 20 342 4 q 304 -11 262 -11 q 159 -11 92 58 q 26 126 26 233 q 26 336 93 407 q 161 477 262 477 q 304 477 340 462 q 376 446 408 415 l 408 465 l 589 465 l 589 368 l 524 368 z"},"j":{"x_min":0,"x_max":278,"ha":278,"o":"m 209 32 q 209 -128 168 -167 q 127 -205 17 -207 l 17 -104 q 62 -98 77 -79 q 93 -61 93 7 l 93 25 l 93 368 l 23 368 l 23 465 l 209 465 z m 55 541 l 55 664 l 209 664 l 209 541 z"},"i":{"x_min":0,"x_max":292,"ha":292,"o":"m 55 541 l 55 664 l 209 664 l 209 541 z m 209 97 l 276 97 l 276 0 l 22 0 l 22 97 l 93 97 l 93 368 l 23 368 l 23 465 l 209 465 z"},"y":{"x_min":0,"x_max":567,"ha":567,"o":"m 347 -208 l 86 -208 l 86 -111 l 159 -111 l 220 12 l 65 368 l 7 368 l 7 465 l 244 465 l 244 368 l 182 368 l 282 129 l 386 368 l 326 368 l 326 465 l 559 465 l 559 368 l 502 368 l 274 -111 l 347 -111 z"},"@":{"x_min":0,"x_max":1000,"ha":1000,"o":"m 573 138 q 546 96 511 76 q 475 56 425 56 q 351 56 311 98 q 272 141 272 220 q 272 334 339 413 q 407 492 502 492 q 545 492 575 475 q 604 458 623 423 l 650 475 l 725 475 l 653 189 q 652 187 652 183 q 649 169 649 165 q 649 146 662 135 q 675 124 696 124 q 721 124 748 139 q 776 154 800 180 q 835 217 854 267 q 872 316 872 372 q 872 496 781 573 q 689 650 542 650 q 475 650 417 635 q 359 620 312 589 q 224 534 176 447 q 128 360 128 254 q 128 102 230 10 q 333 -81 503 -81 q 584 -81 661 -57 q 738 -33 803 12 l 836 -36 q 763 -91 680 -119 q 598 -147 507 -147 q 413 -147 335 -124 q 258 -100 198 -54 q 123 3 85 80 q 48 157 48 255 q 48 335 73 408 q 99 480 148 541 q 220 628 321 674 q 421 719 545 719 q 626 719 699 697 q 771 675 823 635 q 888 585 920 520 q 952 455 952 373 q 952 294 920 226 q 889 157 830 110 q 796 83 757 69 q 717 55 675 55 q 623 55 598 75 q 573 95 573 136 z m 602 345 q 595 386 572 409 q 549 431 512 431 q 450 431 406 368 q 362 306 362 217 q 362 169 384 143 q 406 117 447 117 q 491 117 527 150 q 562 182 575 234 z"},".":{"x_min":0,"x_max":267,"ha":267,"o":"m 134 -12 q 95 -12 70 13 q 44 39 44 77 q 44 115 70 140 q 95 165 134 165 q 171 165 197 139 q 223 114 223 77 q 223 40 197 14 q 171 -12 134 -12 z"},"p":{"x_min":0,"x_max":617,"ha":617,"o":"m 205 232 q 205 172 243 132 q 282 93 339 93 q 396 93 435 132 q 473 171 473 232 q 473 292 435 332 q 396 372 339 372 q 282 372 243 332 q 205 292 205 232 z m 28 -208 l 28 -111 l 93 -111 l 93 368 l 28 368 l 28 465 l 209 465 l 209 415 q 241 446 277 462 q 313 477 355 477 q 456 477 523 407 q 591 336 591 233 q 591 126 525 57 q 459 -11 355 -11 q 315 -11 278 3 q 241 17 209 44 l 209 -111 l 278 -111 l 278 -208 z"},"X":{"x_min":0,"x_max":660,"ha":660,"o":"m 329 269 l 221 100 l 281 100 l 281 0 l 19 0 l 19 100 l 82 100 l 263 356 l 87 620 l 25 620 l 25 720 l 289 720 l 289 620 l 234 620 l 336 457 l 440 620 l 381 620 l 381 720 l 631 720 l 631 620 l 580 620 l 400 369 l 582 100 l 645 100 l 645 0 l 376 0 l 376 100 l 434 100 z"},"*":{"x_min":0,"x_max":556,"ha":556,"o":"m 230 734 l 331 734 l 314 582 l 451 655 l 487 561 l 330 516 l 446 414 l 371 348 l 277 473 l 185 348 l 110 414 l 226 516 l 69 561 l 105 655 l 244 582 z"},"Y":{"x_min":0,"x_max":656,"ha":656,"o":"m 389 100 l 477 100 l 477 0 l 171 0 l 171 100 l 259 100 l 259 332 l 70 620 l 13 620 l 13 720 l 276 720 l 276 620 l 219 620 l 329 441 l 437 620 l 372 620 l 372 720 l 634 720 l 634 620 l 576 620 l 389 332 z"},"c":{"x_min":0,"x_max":516,"ha":516,"o":"m 490 105 q 446 47 391 18 q 335 -12 272 -12 q 166 -12 95 58 q 25 127 25 233 q 25 339 91 408 q 157 478 256 478 q 293 478 324 467 q 355 456 380 433 l 380 465 l 471 465 l 471 309 l 397 309 q 366 348 336 363 q 306 379 264 379 q 208 379 175 339 q 141 300 141 233 q 141 171 178 130 q 215 89 271 89 q 314 89 348 106 q 381 124 418 166 z"},"!":{"x_min":0,"x_max":345,"ha":345,"o":"m 172 -12 q 133 -12 108 13 q 83 39 83 77 q 83 115 108 140 q 134 165 172 165 q 209 165 236 139 q 262 114 262 77 q 262 40 236 14 q 209 -12 172 -12 z m 222 217 l 123 217 l 96 720 l 249 720 z"},"/":{"x_min":0,"x_max":333,"ha":333,"o":"m 315 734 l 69 -93 l 2 -93 l 248 734 z"},"[":{"x_min":0,"x_max":363,"ha":363,"o":"m 96 -85 l 96 720 l 330 720 l 330 632 l 212 632 l 212 3 l 330 3 l 330 -85 z"},"6":{"x_min":0,"x_max":535,"ha":535,"o":"m 274 95 q 318 95 347 128 q 377 161 377 211 q 377 261 347 294 q 318 327 274 327 q 231 327 202 294 q 173 261 173 211 q 173 160 202 128 q 230 95 274 95 z m 365 503 q 362 557 339 583 q 317 609 273 609 q 217 609 194 573 q 171 537 171 437 l 171 385 q 205 411 238 423 q 271 436 303 436 q 389 436 444 374 q 499 312 499 214 q 499 112 438 49 q 377 -14 277 -14 q 163 -14 107 52 q 51 119 51 254 l 51 465 q 51 587 108 651 q 166 715 275 715 q 374 715 428 662 q 483 609 483 513 l 483 503 z"},"r":{"x_min":0,"x_max":403,"ha":403,"o":"m 209 398 l 215 400 q 225 435 247 454 q 269 473 300 473 q 335 473 359 450 q 382 426 382 390 q 382 354 359 331 q 336 308 299 308 q 271 308 250 324 q 229 341 216 372 l 209 369 l 209 97 l 274 97 l 274 0 l 28 0 l 28 97 l 93 97 l 93 368 l 28 368 l 28 465 l 209 465 z"},"2":{"x_min":0,"x_max":535,"ha":535,"o":"m 384 205 l 499 205 l 499 0 l 42 0 l 42 97 l 270 349 q 324 409 347 450 q 370 491 370 525 q 370 565 344 588 q 319 610 272 610 q 213 610 188 572 q 163 535 163 444 l 163 424 l 48 424 q 47 431 47 438 q 47 444 47 458 q 47 588 103 651 q 159 715 274 715 q 374 715 433 663 q 492 611 492 523 q 492 469 464 418 q 437 368 353 283 l 177 105 l 384 105 z"},"{":{"x_min":0,"x_max":500,"ha":500,"o":"m 427 721 l 427 634 q 423 634 415 634 q 407 635 404 635 q 351 635 332 615 q 313 594 313 530 l 313 412 q 313 336 292 304 q 270 272 214 259 q 270 246 291 214 q 313 182 313 106 l 313 -11 q 313 -76 332 -96 q 352 -117 405 -117 q 408 -117 416 -117 q 423 -116 427 -116 l 427 -202 l 396 -202 q 346 -202 315 -196 q 284 -190 263 -178 q 235 -162 224 -131 q 213 -101 213 -32 l 213 89 q 213 159 187 188 q 162 217 100 217 q 97 217 90 216 q 83 216 79 216 l 79 303 q 83 303 90 302 q 97 302 100 302 q 162 302 187 331 q 213 359 213 429 l 213 550 q 213 621 224 651 q 235 681 263 697 q 285 710 316 716 q 348 721 405 721 z"},"9":{"x_min":0,"x_max":535,"ha":535,"o":"m 260 606 q 216 606 187 573 q 157 540 157 490 q 157 440 187 407 q 216 374 260 374 q 304 374 333 407 q 363 440 363 490 q 363 541 333 573 q 304 606 260 606 z m 170 197 q 173 143 195 117 q 218 92 262 92 q 318 92 341 128 q 364 164 364 264 l 364 315 q 331 290 298 277 q 265 265 232 265 q 146 265 91 326 q 36 388 36 486 q 36 589 97 652 q 158 715 258 715 q 372 715 428 648 q 484 582 484 447 l 484 235 q 484 113 427 50 q 370 -14 260 -14 q 161 -14 106 39 q 52 91 52 187 l 52 197 z"}," ":{"x_min":0,"x_max":267,"ha":267,"o":""},"I":{"x_min":0,"x_max":333,"ha":333,"o":"m 231 100 l 308 100 l 308 0 l 25 0 l 25 100 l 102 100 l 102 620 l 25 620 l 25 720 l 308 720 l 308 620 l 231 620 z"},"H":{"x_min":0,"x_max":749,"ha":749,"o":"m 231 323 l 231 100 l 308 100 l 308 0 l 25 0 l 25 100 l 102 100 l 102 620 l 25 620 l 25 720 l 308 720 l 308 620 l 231 620 l 231 439 l 518 439 l 518 620 l 441 620 l 441 720 l 723 720 l 723 620 l 647 620 l 647 100 l 723 100 l 723 0 l 441 0 l 441 100 l 518 100 l 518 323 z"},"4":{"x_min":0,"x_max":535,"ha":535,"o":"m 147 255 l 315 255 l 315 429 q 315 456 318 491 q 321 527 327 568 z m 216 0 l 216 89 l 315 89 l 315 167 l 42 167 l 42 258 l 312 701 l 428 701 l 428 255 l 512 255 l 512 167 l 428 167 l 428 89 l 512 89 l 512 0 z"},"~":{"x_min":0,"x_max":833,"ha":833,"o":"m 747 383 l 747 293 q 697 258 651 241 q 604 224 561 224 q 540 224 516 228 q 492 232 468 241 q 456 245 431 254 q 327 290 275 290 q 235 290 190 271 q 145 253 87 212 l 87 303 q 139 338 186 356 q 232 373 276 373 q 306 373 337 367 q 368 361 419 344 q 426 342 440 336 q 520 308 562 308 q 604 308 648 326 q 693 344 747 383 z"},"D":{"x_min":0,"x_max":749,"ha":749,"o":"m 231 620 l 231 100 l 318 100 q 449 100 517 166 q 585 232 585 360 q 585 488 517 554 q 449 620 318 620 z m 314 720 q 512 720 615 628 q 718 536 718 360 q 718 185 615 92 q 512 0 314 0 l 25 0 l 25 100 l 102 100 l 102 620 l 25 620 l 25 720 z"},"^":{"x_min":0,"x_max":1000,"ha":1000,"o":"m 447 713 l 553 713 l 795 439 l 694 439 l 500 633 l 305 439 l 204 439 z"},"0":{"x_min":0,"x_max":535,"ha":535,"o":"m 167 429 l 167 272 q 167 171 190 133 q 213 95 267 95 q 321 95 345 135 q 368 174 368 272 l 368 430 q 368 530 345 568 q 321 607 267 607 q 213 607 190 568 q 167 529 167 429 z m 46 262 l 46 440 q 46 515 53 550 q 61 585 78 614 q 107 663 156 689 q 205 715 267 715 q 330 715 379 689 q 427 664 457 614 q 474 587 481 554 q 488 521 488 460 l 488 440 l 488 239 q 488 189 483 161 q 478 133 467 109 q 441 51 388 18 q 335 -14 267 -14 q 205 -14 156 12 q 107 39 78 88 q 61 117 53 151 q 46 186 46 262 z"},"F":{"x_min":0,"x_max":597,"ha":597,"o":"m 25 0 l 25 100 l 102 100 l 102 620 l 25 620 l 25 720 l 573 720 l 573 524 l 461 524 l 461 619 l 231 619 l 231 439 l 436 439 l 436 331 l 231 331 l 231 100 l 325 100 l 325 0 z"},"`":{"x_min":0,"x_max":500,"ha":500,"o":"m 322 531 l 258 531 l 114 701 l 222 701 z"},"k":{"x_min":0,"x_max":556,"ha":556,"o":"m 91 623 l 21 623 l 21 720 l 206 720 l 206 252 l 354 368 l 299 368 l 299 465 l 537 465 l 537 368 l 482 368 l 328 242 l 487 97 l 537 97 l 537 0 l 305 0 l 305 97 l 346 97 l 206 227 l 206 97 l 262 97 l 262 0 l 20 0 l 20 97 l 91 97 z"},"u":{"x_min":0,"x_max":595,"ha":595,"o":"m 390 63 q 349 24 309 6 q 269 -12 225 -12 q 151 -12 116 28 q 81 67 81 150 l 81 368 l 16 368 l 16 465 l 197 465 l 197 176 q 197 139 216 119 q 235 99 270 99 q 301 99 331 116 q 361 132 390 167 l 390 368 l 325 368 l 325 465 l 506 465 l 506 97 l 570 97 l 570 0 l 390 0 z"},"]":{"x_min":0,"x_max":363,"ha":363,"o":"m 268 -85 l 34 -85 l 34 3 l 152 3 l 152 632 l 34 632 l 34 720 l 268 720 z"},"U":{"x_min":0,"x_max":743,"ha":743,"o":"m 244 262 q 244 177 274 142 q 303 108 372 108 q 440 108 470 143 q 499 178 499 262 l 499 620 l 423 620 l 423 720 l 705 720 l 705 620 l 629 620 l 629 277 q 629 199 620 158 q 611 118 591 86 q 560 36 505 11 q 450 -14 372 -14 q 301 -14 248 7 q 196 28 162 70 q 136 102 125 148 q 114 193 114 277 l 114 620 l 38 620 l 38 720 l 320 720 l 320 620 l 244 620 z"},"o":{"x_min":0,"x_max":565,"ha":565,"o":"m 145 233 q 145 172 185 131 q 224 90 282 90 q 340 90 380 131 q 419 171 419 233 q 419 296 380 336 q 341 377 282 377 q 224 377 184 336 q 145 295 145 233 z m 25 233 q 25 336 99 407 q 172 477 282 477 q 392 477 466 407 q 539 336 539 233 q 539 130 466 60 q 393 -10 282 -10 q 172 -10 99 60 q 25 130 25 233 z"},"N":{"x_min":0,"x_max":727,"ha":727,"o":"m 225 100 l 301 100 l 301 0 l 25 0 l 25 100 l 102 100 l 102 620 l 25 620 l 25 720 l 245 720 l 502 250 l 502 620 l 425 620 l 425 720 l 701 720 l 701 620 l 624 620 l 624 -14 l 515 -14 l 225 531 z"},"+":{"x_min":0,"x_max":833,"ha":833,"o":"m 375 596 l 458 596 l 458 339 l 709 339 l 709 258 l 458 258 l 458 0 l 375 0 l 375 258 l 124 258 l 124 339 l 375 339 z"},"G":{"x_min":0,"x_max":833,"ha":833,"o":"m 630 82 q 586 34 529 10 q 472 -14 401 -14 q 243 -14 136 93 q 30 200 30 360 q 30 523 135 629 q 241 734 407 734 q 472 734 525 716 q 578 698 611 665 l 611 720 l 717 720 l 717 480 l 611 480 q 582 546 531 579 q 480 612 409 612 q 299 612 233 543 q 167 474 167 360 q 167 250 235 179 q 304 108 407 108 q 480 108 532 138 q 585 169 624 234 l 459 234 l 459 338 l 803 338 l 803 234 l 728 234 l 728 0 l 634 0 z"},"q":{"x_min":0,"x_max":617,"ha":617,"o":"m 589 -208 l 339 -208 l 339 -111 l 408 -111 l 408 44 q 375 17 339 3 q 302 -11 262 -11 q 158 -11 92 57 q 26 126 26 233 q 26 336 93 407 q 161 477 262 477 q 304 477 340 462 q 376 446 408 415 l 408 465 l 589 465 l 589 368 l 524 368 l 524 -111 l 589 -111 z m 412 232 q 412 292 374 332 q 335 372 278 372 q 221 372 183 332 q 144 292 144 232 q 144 171 182 132 q 220 93 278 93 q 335 93 374 132 q 412 172 412 232 z"},"d":{"x_min":0,"x_max":613,"ha":613,"o":"m 344 720 l 524 720 l 524 97 l 589 97 l 589 0 l 408 0 l 408 50 q 379 20 342 4 q 304 -11 262 -11 q 159 -11 92 58 q 26 126 26 233 q 26 336 93 407 q 161 477 262 477 q 304 477 340 462 q 376 446 408 415 l 408 623 l 344 623 z m 144 232 q 144 172 182 132 q 221 93 278 93 q 336 93 374 132 q 412 171 412 232 q 412 292 374 332 q 335 372 278 372 q 221 372 183 332 q 144 292 144 232 z"},"1":{"x_min":0,"x_max":535,"ha":535,"o":"m 129 0 l 129 97 l 211 97 l 211 604 l 135 604 l 135 701 l 332 701 l 332 97 l 413 97 l 413 0 z"},"5":{"x_min":0,"x_max":535,"ha":535,"o":"m 42 222 l 158 222 l 158 208 q 158 153 183 124 q 208 95 256 95 q 310 95 340 131 q 371 167 371 230 q 371 296 333 326 q 296 357 214 357 q 193 357 162 355 q 130 353 91 348 l 91 702 l 435 702 l 435 596 l 210 596 l 210 464 q 218 464 226 465 q 234 465 249 465 q 363 465 428 401 q 493 337 493 226 q 493 118 430 52 q 367 -14 262 -14 q 160 -14 101 44 q 41 103 41 202 q 41 205 42 212 q 42 218 42 222 z"}}}
